HIERARCHY
ROOT Hips
{
    OFFSET 10.467214584350586 73.34869003295898 -15.984508514404297
    CHANNELS 6 Xposition Yposition Zposition Zrotation Xrotation Yrotation
    JOINT RightUpLeg
    {
        OFFSET -10.467214584350586 0.0 0.0
        CHANNELS 3 Zrotation Xrotation Yrotation
        JOINT RightLeg
        {
            OFFSET 0.0 -33.387420654296875 0.0
            CHANNELS 3 Zrotation Xrotation Yrotation
            JOINT RightFoot
            {
                OFFSET 0.0 -39.96126937866211 0.0
                CHANNELS 3 Zrotation Xrotation Yrotation
                End Site
                {
                    OFFSET 0.0 0.0 15.984508514404297
                }
            }
        }
    }
    JOINT LeftUpLeg
    {
        OFFSET 10.467214584350586 0.0 0.0
        CHANNELS 3 Zrotation Xrotation Yrotation
        JOINT LeftLeg
        {
            OFFSET 0.0 -33.387420654296875 0.0
            CHANNELS 3 Zrotation Xrotation Yrotation
            JOINT LeftFoot
            {
                OFFSET 0.0 -39.96126937866211 0.0
                CHANNELS 3 Zrotation Xrotation Yrotation
                End Site
                {
                    OFFSET 0.0 0.0 15.984508514404297
                }
            }
        }
    }
    JOINT Spine
    {
        OFFSET 0.0 21.663711547851562 0.0
        CHANNELS 3 Zrotation Xrotation Yrotation
        JOINT Spine3
        {
            OFFSET 0.0 24.632129669189453 0.0
            CHANNELS 3 Zrotation Xrotation Yrotation
            JOINT Neck
            {
                OFFSET 0.0 10.290008544921875 0.0
                CHANNELS 3 Zrotation Xrotation Yrotation
                End Site
                {
                    OFFSET 0.0 4.116003513336182 0.0
                }
            }
            JOINT LeftArm
            {
                OFFSET 12.711906433105469 0.0 0.0
                CHANNELS 3 Zrotation Xrotation Yrotation
                JOINT LeftForeArm
                {
                    OFFSET 23.83362579345703 0.0 0.0
                    CHANNELS 3 Zrotation Xrotation Yrotation
                    JOINT LeftHand
                    {
                        OFFSET 18.33049774169922 0.0 0.0
                        CHANNELS 3 Zrotation Xrotation Yrotation
                        End Site
                        {
                            OFFSET 7.332199573516846 0.0 0.0
                        }
                    }
                }
            }
            JOINT RightArm
            {
                OFFSET -12.711906433105469 0.0 0.0
                CHANNELS 3 Zrotation Xrotation Yrotation
                JOINT RightForeArm
                {
                    OFFSET -23.83362579345703 0.0 0.0
                    CHANNELS 3 Zrotation Xrotation Yrotation
                    JOINT RightHand
                    {
                        OFFSET -18.33049774169922 0.0 0.0
                        CHANNELS 3 Zrotation Xrotation Yrotation
                        End Site
                        {
                            OFFSET -7.332199573516846 0.0 0.0
                        }
                    }
                }
            }
        }
    }
}
MOTION
Frames: 9
Frame Time: 0.03333333333333333
0.00048178681754507124 87.0273208618164 -0.00035220180870965123 0.8423962079998348 -7.339755209480869 9.438451717220174 3.495070629165388 8.709626706379067 -0.791732450455148 2.1273487961666473 7.674390762166725 -0.9759819484612469 -1.2931366107568824e-34 4.9696166897867443e-17 2.9817700138720465e-16 -2.929040203739894 2.8236260219549543 0.060533111992276595 -0.5380469971231198 12.551249082886557 0.37590395532936 7.951386703658791e-16 1.5405811738338907e-15 -7.454425034680117e-16 3.3277902397238495 0.8954539624317959 -0.07912249416273433 -2.340480205170666e-07 9.061601111316941e-07 3.7357137684167325 -22.036116491253722 19.76685131285592 -161.4443724356772 105.10824066553494 -30.366460926405114 -179.3141553536282 -1.1747870732805695e-06 5.44968854781953e-07 111.49636942846215 0.0 -6.3611093629270335e-15 0.0 -127.25945190008093 -31.042878268821667 160.5809380666637 3.1132257198323055e-06 6.330371900791747e-06 -115.75664268337205 0.0 0.0 1.5902773407317584e-15
0.0005302870413288474 87.02702331542969 -0.00019093768787570298 0.4755036941144048 -7.434133228823218 9.519825178212795 3.582833186959944 9.18465616043279 -0.7805113796293563 1.8900911266880593 7.0451350240750985 -0.824345978884096 6.681205822243892e-34 1.5405811738338905e-15 -4.969616689786744e-17 -2.544423424789102 2.7229210290990036 0.061265180165925665 -0.3105170401144414 11.856911621615401 0.31823031001183133 0.0 0.0 7.454425034680117e-16 4.048790077713023 2.2797804331107208 -0.213105811903517 1.2034000831258523e-07 7.077338951082114e-08 3.517522270149001 -19.729237523064207 18.24526707099501 -159.55585218893503 105.6569156549817 -32.6426818953833 -173.54616397877248 -2.5518489523110326e-06 -2.355519696264856e-06 110.28383430572349 0.0 0.0 -3.1805546814635164e-15 -128.7751875926847 -27.955802011283474 157.66997057788902 5.337673292186996e-06 4.6109534321765725e-07 -114.38859244022244 0.0 0.0 0.0
0.00041281667654402554 87.0268325805664 -0.0002452739863656461 0.22769871172422504 -6.046775307979555 10.18616747268489 4.133123548905004 8.970181055417688 -0.8739563275666004 0.8373753201197468 5.865360473451059 -0.6511390918366963 0.0 0.0 -2.1866313435061676e-15 -1.6343233520469098 2.116139790991353 0.00787820504819538 -0.9027910001878234 10.22939965874765 0.19019154633380594 5.172546443027529e-33 -7.951386703658794e-16 7.454425034680119e-16 4.0170303274024475 2.741406014467333 -0.26252031308947416 7.220111344516464e-08 5.548478678567256e-08 4.193117457773198 -16.0991491716005 17.749755337930612 -158.48468629578787 101.22393975010597 -34.28467866325813 -179.9670636825216 1.6514999251300996e-06 5.030242316065026e-06 111.58122586667366 -1.7655625192200634e-31 -6.3611093629270335e-15 -3.1805546814635168e-15 -128.26177909303254 -25.677319867314086 159.8612633671559 1.8668664671516959e-06 1.6205715648342552e-06 -116.72989822102485 0.0 0.0 -1.5902773407317584e-15
0.0004894610610790551 87.02674865722656 -0.0002187556674471125 0.5405850031038535 -5.198297377252584 11.74463634054296 4.279937382769902 9.67807563639942 -1.0635030988783327 1.317053524667211 4.823972840363829 -0.6358631995321851 7.951386703658791e-16 -4.969616689786744e-17 6.460501696722768e-16 -1.3095450016093055 2.2490068677316817 -0.026697189481634298 -1.7479204368455197 8.551041458248365 0.15227874389705373 0.0 0.0 5.715059193254755e-16 3.4543038555486922 1.2174452513920653 -0.11672477509535772 -8.272783567594081e-08 -1.2880489968861465e-07 5.795554963847629 -11.092798338430576 17.771435802688558 -158.43482858619976 101.3339584400065 -34.14989104159143 178.59470066250114 -7.646419196446932e-08 4.802246611619619e-06 114.59668438544423 1.2722218725854067e-14 0.0 0.0 -126.89727350076035 -27.165565912854188 162.93733430468296 -9.225746751023415e-07 -3.6794370044725523e-06 -119.56051939225037 0.0 0.0 1.5902773407317584e-15
0.00018965393246617168 87.02644348144531 -0.0003758312086574733 0.710124532123816 -4.686819590588343 7.215385092935281 3.573699002436104 6.935864753434296 -0.8187116594446928 0.21841238640499716 6.760084876025466 -0.8177314437606115 3.975693351829396e-16 1.5902773407317584e-15 -3.4787316828507215e-16 -1.9882212177968717 2.382911703797611 -0.04946304435081151 -1.0257748377498608 8.849722305875202 -0.02685192350433967 -3.975693351829395e-16 4.310455369189608e-34 -1.242404172446686e-16 3.6602071399030276 3.915114745638621 -0.4692835264979801 8.210822886088343e-08 -3.2083573992084335e-09 2.78402922522303 -18.166383588614888 14.396559579472092 -163.8687450333768 99.63050422360577 -32.80244004146901 -177.34992629156915 3.2404004732514763e-06 2.2623021067317608e-07 120.92531616266444 1.7655625192200634e-31 -6.361109362927033e-15 3.1805546814635164e-15 -129.05042014078703 -28.399209285949965 155.87991762375927 -3.4043781274844604e-06 3.2667321825485577e-06 -123.23333542490066 0.0 0.0 -1.5902773407317582e-15
0.0003761182597372681 87.02650451660156 -0.0004615663783624768 1.7482405177937015 -2.7377234225501903 6.321707510901094 2.0673364446329043 4.81893502210856 -0.529497096842743 0.7476496342868874 8.482964723541528 -1.0389235428356696 -1.2931366107568824e-34 -2.4848083448933722e-17 -5.963540027744093e-16 -3.7595285288361207 0.05909311062406742 -0.0009230749718833884 0.47321150617829516 9.9206346016063 -0.16337250094701822 0.0 0.0 -1.1927080055488186e-15 3.7206064571243362 4.5418317241460615 -0.6332356946828448 -4.79675834206976e-08 1.8833815862851085e-07 2.5669340502212434 -24.107419460105476 13.133594494589913 -168.82025708982187 101.93178928106494 -32.575348187018186 -173.1876807775474 4.593263203071379e-07 -5.17073547781606e-06 114.77240319007882 -6.3611093629270335e-15 -1.7655625192200634e-31 3.1805546814635168e-15 -132.70986427418518 -27.407923859586166 152.62606097212176 1.5746883812718908e-06 1.0257825039423906e-06 -122.3461062903672 6.3611093629270335e-15 -8.827812596100317e-32 -1.5902773407317584e-15
0.0009130015387199819 87.02690887451172 -0.0002856682986021042 2.4771791212022705 -2.231910691975448 7.657210570456448 1.7917251315319866 5.330593878634774 -0.6655734103229631 1.4186487188379866 9.398020704142452 -1.4000326106448613 2.155227684594804e-34 -4.969616689786746e-17 4.969616689786746e-16 -4.416601326621903 0.24312995216357028 -0.003720462089226352 -0.30888250338475826 9.29631181295541 -0.10201113240376462 0.0 0.0 6.212020862233431e-16 3.6088250182317143 3.401491784779251 -0.5356000657982634 1.3078305911478502e-07 -2.8116195710599856e-08 3.33530106009228 -27.65761545842815 16.309960567444133 -174.49823560328437 104.98333299777913 -41.14472122995548 -173.60834617564456 3.066877608828572e-06 6.88408916950011e-07 110.24604133308449 0.0 0.0 0.0 -133.6984861671867 -30.29648752543832 154.72067652026138 3.568842599997689e-06 7.488963666506283e-07 -125.1456155656283 2.2069531490250793e-32 6.3611093629270335e-15 -3.975693351829396e-16
0.0009141596965491772 87.02727508544922 -0.0005260768230073154 3.4743811529580206 -3.651851722897479 4.150344311759831 -1.1149758140824835 3.9493327504092286 -0.2988314757574896 2.622994087210029 13.573254690337087 -1.637736667272887 2.155227684594804e-35 -1.2424041724466862e-17 1.987846675914698e-16 -7.304076873019694 0.3291472313408919 0.010326646039641275 0.7286817106950921 10.768626787951487 0.20580363327846482 8.620910738379216e-34 7.951386703658791e-16 -1.242404172446686e-16 1.7673238383000422 5.555163039350269 -0.7034470907396668 -7.882569801156582e-08 -2.0116587269799141e-07 2.231310050703915 -36.36243147509028 18.290610202345817 166.10734195983068 103.99105481188754 -35.28214055264436 -167.43607243909813 -1.847948155222699e-06 -3.0065514181068954e-06 102.7872947086124 0.0 0.0 0.0 -134.34050968496808 -24.887157742806803 147.51056245807777 -2.710337259714536e-06 1.6518075729100928e-06 -124.37832013416926 0.0 0.0 -7.951386703658792e-16
0.0008438504883088171 87.02841186523438 -0.000816464307717979 6.578853791941692 -3.2058022399914625 2.1149235890123355 -7.152185915119236 0.34811326476998966 -0.0007216424795790873 6.878688961610355 15.72859347443366 -1.8905699605281885 0.0 0.0 -9.93923337957349e-17 -11.625420421853397 -0.4025407903147528 -0.030419904158222988 1.6335148843693978 11.436496952070742 0.5427629972454232 0.0 0.0 -9.939233379573492e-17 -1.0712091782260973 3.31288783431226 -0.3576462850059849 4.8055274942469364e-08 2.597262796629744e-08 3.608101105650342 -46.99356369584383 25.048799546939676 140.59054480475012 104.73513624471936 -34.90170290544839 -167.86483471257716 2.694402273493208e-06 -2.7640630099471754e-06 99.67283165072536 3.1805546814635168e-15 -6.3611093629270335e-15 1.7655625192200634e-31 -132.78280588067813 -27.12602112117839 146.02748332139765 -2.1957567162177867e-07 5.705765673639172e-06 -131.06114662429206 -6.361109362927033e-15 2.2069531490250793e-32 -3.9756933518293955e-16
